<svg height="512pt" viewBox="0 0 512 512.001" width="512pt" xmlns="http://www.w3.org/2000/svg"><path d="m.210938.210938h60.976562v29.988281h-60.976562zm0 0"/><path d="m.210938 60.1875h120.949218v29.988281h-120.949218zm0 0"/><path d="m.210938 422.035156h90.964843v29.988282h-90.964843zm0 0"/><path d="m.210938 362.0625h60.976562v29.988281h-60.976562zm0 0"/><path d="m.210938 482.011719h180.925781v29.988281h-180.925781zm0 0"/><path d="m241.113281 177.558594 2.914063 2.972656 13.96875-6.644531c14.363281-7.207031 30.441406-11.011719 46.472656-11.011719 18.277344 0 35.644531 5.117188 51.117188 13.953125l35.675781-35.675781-141.152344-141.152344-62.765625 62.761719 10.601562 10.601562c27.441407 27.425781 43.167969 65.410157 43.167969 104.195313zm0 0"/><path d="m151.148438 257.105469c0 42.246093-19.105469 72.421875-55.082032 89.070312l46.085938 46.085938 10.601562-10.601563c10.367188-10.367187 22.410156-4.371094 32.773438 5.996094l102.382812 102.378906c14.15625 14.160156 32.988282 21.964844 53.019532 21.964844h171.070312v-74.96875c0-41.335938-33.632812-74.96875-74.96875-74.96875h-39.464844l-39.023437 68.292969-24.949219-16.636719 29.519531-51.65625h-62.027343v-29.988281h75.78125l-9.996094-29.988281h-95.773438v-29.988282h89.964844v-53.1875c-3.003906-1.597656-37.363281-44.410156-89.640625-18.214844l-12.636719 6.324219c-10.308594 5.140625-22.289062 4.597657-32.039062-1.449219-9.78125-6.03125-15.625-16.515624-15.625-28.011718 0-30.894532-12.53125-61.144532-34.378906-82.992188l-10.597657-10.601562-76.074219 76.074218c35.976563 16.644532 61.078126 54.820313 61.078126 97.066407zm0 0"/><path d="m121.160156 257.105469c0-34.160157-23.109375-64.742188-54.414062-73.742188l-66.746094 67.746094 72.742188 71.742187c31.304687-9.003906 48.417968-31.585937 48.417968-65.746093zm0 0"/></svg>