<svg height="512pt" viewBox="0 0 512 512" width="512pt" xmlns="http://www.w3.org/2000/svg"><path d="m226 0h-39.230469l29.226563 26.175781c.246094.21875 25.003906 23.117188 25.003906 48.824219 0 8.746094-2.871094 18.136719-8.539062 27.90625-14.238282 24.566406-21.460938 49.597656-21.460938 77.09375 0 66.167969 53.832031 122 120 122s120-55.832031 120-122v-15c0-41.351562-33.648438-75-75-75h-15v45c0 8.277344-6.722656 15-15 15s-15-6.722656-15-15v-30c0-57.890625-47.109375-105-105-105zm0 0"/><path d="m0 242h60v240h-60zm0 0"/><path d="m358.867188 422h-147.867188v-30h135v-60h-85.460938l-90-60h-80.539062v193.335938l106 46.664062h145.125l170.875-132.71875-36.804688-47.109375zm0 0"/></svg>