<svg height="512pt" viewBox="-28 0 512 512" width="512pt" xmlns="http://www.w3.org/2000/svg"><path d="m212.570312 232.085938v-133.371094l-120.324218 36.019531c1.90625 37.101563 5.6875 69.339844 10.757812 97.351563zm0 0"/><path d="m212.570312 262.371094h-103.214843c15.65625 65.144531 38.683593 102.929687 58.722656 124.671875 16.90625 18.34375 33.207031 26.824219 44.492187 30.746093zm0 0"/><path d="m242.859375 232.085938h109.5625c5.074219-28.011719 8.851563-60.25 10.757813-97.351563l-120.320313-36.019531zm0 0"/><path d="m242.859375 262.371094v155.40625c11.265625-3.925782 27.597656-12.40625 44.488281-30.734375 20.042969-21.742188 43.066406-59.527344 58.722656-124.671875zm0 0"/><path d="m444.625 64.269531-212.570312-63.632812c-2.832032-.847657-5.851563-.847657-8.683594 0l-212.570313 63.632812c-6.410156 1.921875-10.800781 7.816407-10.800781 14.507813 0 98.90625 11.457031 183.039062 34.054688 250.054687 18.433593 54.679688 44.339843 98.347657 76.992187 129.792969 54.75 52.726562 110.117187 53.476562 116.667969 53.367188.210937.003906.46875.007812.777344.007812 9.339843 0 62.890624-2.34375 115.890624-53.378906 32.652344-31.441406 58.554688-75.109375 76.992188-129.789063 22.59375-67.015625 34.050781-151.148437 34.050781-250.054687 0-6.691406-4.390625-12.585938-10.800781-14.507813zm-135.007812 343.300781c-36.195313 39.265626-72.710938 43.371094-79.664063 43.796876-.304687.019531-.613281.027343-.921875.027343-.265625 0-.535156-.011719-.800781-.027343-.171875.007812-.34375.027343-.515625.027343-.480469 0-.949219-.027343-1.417969-.070312-.597656.019531-1.195313.019531-1.796875-.027344-9.734375-.789063-44.171875-6.277344-78.691406-43.726563-21.941406-23.804687-40.023438-56.152343-53.75-96.140624-17.390625-50.683594-27.691406-113.671876-30.609375-187.210938-.273438-6.910156 4.167969-13.125 10.792969-15.109375l150.925781-45.183594c.039062-.011719.078125-.023437.117187-.035156l.085938-.023437c.382812-.117188.773437-.210938 1.160156-.296876.148438-.03125.296875-.054687.445312-.078124.3125-.058594.625-.109376.941407-.144532.144531-.019531.289062-.035156.433593-.046875.910157-.082031 1.820313-.082031 2.726563 0 .144531.011719.289063.027344.433594.046875.316406.035156.628906.085938.945312.144532.144531.023437.292969.046874.441407.078124.386718.085938.777343.179688 1.160156.296876l.085937.023437c.042969.011719.082031.023437.121094.035156l150.925781 45.183594c6.621094 1.984375 11.0625 8.199219 10.789063 15.109375-2.917969 73.539062-13.21875 136.523438-30.609375 187.210938-13.726563 39.988281-31.808594 72.335937-53.753906 96.140624zm0 0"/></svg>